<svg width="112px" height="37px" viewBox="0 0 112 37" version="1.1" xmlns="http://www.w3.org/2000/svg" xmlns:xlink="http://www.w3.org/1999/xlink">
    <g id="Page-1" stroke="none" stroke-width="1" fill="none" fill-rule="evenodd">
        <g id="Artboard" transform="translate(-1312.000000, 0.000000)">
            <g id="Group-4" transform="translate(1312.000000, 0.000000)">
                <path d="M0,0 L112,0 L112,34 C112,35.6568542 110.656854,37 109,37 L3,37 C1.34314575,37 2.02906125e-16,35.6568542 0,34 L0,0 L0,0 Z" id="Rectangle" fill="#161617"></path>
                <g id="Group-Copy">
                    <g transform="translate(13.000000, 4.000000)">
                        <g id="book-open" stroke-linecap="round" stroke-linejoin="round">
                            <g transform="translate(0.000000, 5.117647)">
                                <path d="M0,0 L6.7876161,0 C9.28674734,0 11.3126935,2.05006457 11.3126935,4.57894737 L11.3126935,20.6052632 C11.3126935,18.7086011 9.79323388,17.1710526 7.91888545,17.1710526 L0,17.1710526 L0,0 Z" id="Path" stroke="#636363" stroke-width="2"></path>
                                <path d="M23.0294118,0 L16.2417957,0 C13.7426644,0 11.7167183,2.05006457 11.7167183,4.57894737 L11.7167183,20.6052632 C11.7167183,18.7086011 13.2361779,17.1710526 15.1105263,17.1710526 L23.0294118,17.1710526 L23.0294118,0 Z" id="Path" stroke="#636363" stroke-width="2"></path>
                            </g>
                        </g>
                        <path d="M35.2783187,22.1764706 C40.3159978,22.1764706 43.1864934,19.0279212 43.1946715,13.7612568 C43.1946715,8.5518387 40.3650661,5.42782346 35.5727285,5.42782346 L30.3714885,5.42782346 L30.3714885,22.1764706 L35.2783187,22.1764706 Z M35.1883602,20.8025581 L31.9007839,20.8025581 L31.9007839,6.80173592 L35.48277,6.80173592 C39.547261,6.80173592 41.7062663,9.42689008 41.7144444,13.7612568 C41.7144444,18.1365137 39.5063708,20.8025581 35.1883602,20.8025581 Z M50.1191479,22.4381682 C53.3740119,22.4381682 55.6475099,19.7803018 55.6475099,15.9529743 C55.6475099,12.1011125 53.3740119,9.44324618 50.1191479,9.44324618 C46.8642838,9.44324618 44.5907858,12.1011125 44.5907858,15.9529743 C44.5907858,19.7803018 46.8642838,22.4381682 50.1191479,22.4381682 Z M50.1191479,21.105146 C47.5103498,21.105146 46.0546568,18.7662236 46.0546568,15.9529743 C46.0546568,13.1397249 47.5103498,10.7680903 50.1191479,10.7680903 C52.7279459,10.7680903 54.1836389,13.1397249 54.1836389,15.9529743 C54.1836389,18.7662236 52.7279459,21.105146 50.1191479,21.105146 Z M62.4002444,22.4381682 C65.0172205,22.4381682 66.8572819,20.786202 67.1925819,18.512704 L65.7205329,18.512704 C65.3852328,20.1156019 64.0685667,21.105146 62.4002444,21.105146 C59.9386513,21.105146 58.3112193,18.9624968 58.3112193,15.903906 C58.3112193,12.8616712 59.9877196,10.7680903 62.4002444,10.7680903 C64.1912375,10.7680903 65.4015889,11.9211954 65.7123548,13.3441762 L67.1844039,13.3441762 C66.8409258,11.0134319 64.8945498,9.44324618 62.3757103,9.44324618 C59.088134,9.44324618 56.8473482,12.174715 56.8473482,15.9529743 C56.8473482,19.6985213 59.0227096,22.4381682 62.4002444,22.4381682 Z M70.412398,22.1764706 L70.412398,14.0638446 C70.412398,12.1992492 71.8435568,10.8498708 73.8062889,10.8498708 C74.1906572,10.8498708 74.5504914,10.9152952 74.6813403,10.9316513 L74.6813403,9.45142423 C74.485067,9.44324618 74.149767,9.42689008 73.9126035,9.42689008 C72.3342398,9.42689008 70.9848615,10.2774073 70.4778224,11.5450051 L70.3715077,11.5450051 L70.3715077,9.61498524 L68.956705,9.61498524 L68.956705,22.1764706 L70.412398,22.1764706 Z M81.5730965,22.4381682 C84.6562215,22.4381682 86.7416243,19.8293701 86.7416243,15.9284401 C86.7416243,12.0602223 84.6480434,9.44324618 81.5485623,9.44324618 C79.2505302,9.44324618 78.2119178,10.882583 77.7130567,12.011154 L77.5822079,12.011154 L77.5822079,5.42782346 L76.1183369,5.42782346 L76.1183369,22.1764706 L77.5331396,22.1764706 L77.5331396,19.8457262 L77.7130567,19.8457262 C78.2200959,20.9988313 79.2832424,22.4381682 81.5730965,22.4381682 Z M81.3931794,21.105146 C78.9561204,21.105146 77.5576738,18.9379626 77.5576738,15.903906 C77.5576738,12.8943834 78.9397643,10.7680903 81.3931794,10.7680903 C83.9120189,10.7680903 85.2777533,13.0088761 85.2777533,15.903906 C85.2777533,18.831648 83.8956628,21.105146 81.3931794,21.105146 Z" id="Docrb" fill="#636363" fill-rule="nonzero"></path>
                    </g>
                </g>
            </g>
        </g>
    </g>
</svg>
