<svg width="17px" height="18px" viewBox="0 0 17 18" version="1.1" xmlns="http://www.w3.org/2000/svg" xmlns:xlink="http://www.w3.org/1999/xlink">
    <g id="Page-1" stroke="none" stroke-width="1" fill="none" fill-rule="evenodd" stroke-linecap="round" stroke-linejoin="round">
        <g id="Components" transform="translate(-964.000000, -157.000000)" stroke="#FFFFFF" stroke-width="1.5">
            <g id="Metadata" transform="translate(758.000000, 64.000000)">
                <g id="github" transform="translate(207.000000, 94.000000)">
                    <path d="M5.32653741,13.7171983 C1.52186783,14.8585991 1.52186783,11.8148635 0,11.4343965 M10.6530748,16 L10.6530748,13.0551857 C10.7108169,12.3211868 10.4502792,11.597779 9.93779693,11.0691482 C12.3271294,10.8028214 14.8382113,9.89731 14.8382113,5.74261083 C14.8380161,4.68021545 14.4293555,3.65856412 13.6968105,2.88910864 C14.0436867,1.95963285 14.0191603,0.932252464 13.6283264,0.020387784 C13.6283264,0.020387784 12.7304244,-0.245939086 10.6530748,1.14656998 C8.90902118,0.673894375 7.07059104,0.673894375 5.32653741,1.14656998 C3.24918782,-0.245939086 2.3512858,0.020387784 2.3512858,0.020387784 C1.96045187,0.932252464 1.93592555,1.95963285 2.28280175,2.88910864 C1.54479257,3.66427178 1.1357111,4.69515708 1.14134231,5.76543884 C1.14134231,9.88970066 3.65248279,10.795212 6.04181529,11.0919762 C5.53550476,11.6151667 5.27545696,12.3289149 5.32653741,13.0551857 L5.32653741,16" id="Shape"></path>
                </g>
            </g>
        </g>
    </g>
</svg>
