<svg width="15px" height="14px" viewBox="0 0 15 14" version="1.1" xmlns="http://www.w3.org/2000/svg" xmlns:xlink="http://www.w3.org/1999/xlink">
    <g id="Page-1" stroke="none" stroke-width="1" fill="none" fill-rule="evenodd">
        <g id="Components" transform="translate(-967.000000, -98.000000)" fill="#FFFFFF" fill-rule="nonzero">
            <g id="Metadata" transform="translate(758.000000, 64.000000)">
                <path d="M217.20937,34.1538462 L217.20937,35.0851822 L220.848897,36.3007287 L223.49265,35.4189474 L223.953414,36.8006478 L221.746405,37.5374089 L224,43.7404858 C223.205127,44.5690688 222.086336,45.0850202 220.848897,45.0850202 C219.61073,45.0850202 218.492667,44.5690688 217.697794,43.7404858 L219.949934,37.5374089 L217.20937,36.6221053 L217.20937,46.5425101 L220.120992,46.5425101 L220.120992,48 L212.841936,48 L212.841936,46.5425101 L215.753558,46.5425101 L215.753558,36.6221053 L213.010811,37.5374089 L215.264406,43.7404858 C214.470261,44.5690688 213.35147,45.0850202 212.114031,45.0850202 C210.875864,45.0850202 209.757801,44.5690688 208.962928,43.7404858 L211.215068,37.5374089 L209.009514,36.8013765 L209.470278,35.4182186 L212.114031,36.3 L215.753558,35.0851822 L215.753558,34.1538462 L217.20937,34.1538462 Z M219.423658,43.2551417 C219.850939,43.4963563 220.338635,43.6275304 220.848897,43.6275304 C221.358431,43.6275304 221.846128,43.4963563 222.274136,43.2558704 L220.848897,39.3293927 L219.423658,43.2551417 Z M210.688792,43.2551417 C211.116072,43.4963563 211.603769,43.6275304 212.114031,43.6275304 C212.623565,43.6275304 213.111261,43.4963563 213.53927,43.2558704 L212.114031,39.3293927 L210.688792,43.2551417 Z" id="Balance"></path>
            </g>
        </g>
    </g>
</svg>
