<svg width="22px" height="18px" viewBox="0 0 22 18" version="1.1" xmlns="http://www.w3.org/2000/svg" xmlns:xlink="http://www.w3.org/1999/xlink">
    <g id="Page-1" stroke="none" stroke-width="1" fill="none" fill-rule="evenodd">
        <g id="Components" transform="translate(-963.000000, -126.000000)" stroke="#FFFFFF" stroke-width="1.5">
            <g id="Metadata" transform="translate(758.000000, 64.000000)">
                <path d="M210.476449,63.3581513 C210.651227,63.1322944 210.920706,63 211.20629,63 L220.486223,63 C220.771808,63 221.041286,63.1322944 221.216064,63.3581513 L225.49911,68.8965728 C225.638456,69.0764127 225.706478,69.3013785 225.690124,69.5282974 C225.67377,69.7552164 225.57419,69.9681035 225.410495,70.1261024 L216.487483,78.7414247 C216.315391,78.9076167 216.085496,79.000501 215.846257,79.000501 C215.607018,79.000501 215.377123,78.9076167 215.205031,78.7414247 L206.282018,70.1261024 C206.118323,69.9681035 206.018744,69.7552164 206.002389,69.5282974 C205.986035,69.3013785 206.054058,69.0764127 206.193403,68.8965728 L210.476449,63.3581513 Z" id="Path"></path>
            </g>
        </g>
    </g>
</svg>
